<svg version="1.1" viewBox="0 0 48 48" xml:space="preserve" xmlns="http://www.w3.org/2000/svg"><rect transform="matrix(.09375 0 0 .09375 3.643e-6 0)" width="512" height="512" fill="#fff"/><g transform="scale(1.0182 .98214)" stroke-width=".92697" aria-label="零"><path d="m20.19 20.676h-7.2675v-2.5214h7.2675zm14.09 0h-7.2675v-2.5214h7.2675zm-1.854 8.1574v1.2978h-17.65v-1.2978q-3.6337 1.3719-7.6754 2.5955l-1.0011-3.263q6.6001-1.7798 11.977-3.9675h-5.154v-2.4843h7.2675v1.5944q0.25955-0.11124 0.77866-0.33371 0.51911-0.25955 0.77866-0.37079v-5.5618h-10.382v5.6731h-3.8933v-8.4169h14.275v-1.4832h-12.903v-3.263h29.515v3.263h-12.903v1.4832h14.275v8.4169h-3.8933v-5.6731h-10.382v5.5618q0.25955 0.11124 0.77866 0.37079 0.51911 0.22247 0.77866 0.33371v-1.5944h7.2675v2.4843h-5.154q5.3765 2.1877 11.977 3.9675l-1.0011 3.263q-4.0416-1.2236-7.6754-2.5955zm-3.8933-1.5573q-2.4472-1.0753-4.9315-2.336-2.4843 1.2607-4.9315 2.336zm-20.208 4.5978h29.663v4.3012q0 2.0023-0.11124 2.9292-0.11124 0.96405-0.66742 1.5573-0.55618 0.63034-1.3719 0.74158-0.77866 0.11124-2.5214 0.11124-2.4843 0-5.636-0.14832l-0.25955-3.1888q4.3753 0.22247 5.0798 0.22247 1.1494 0 1.3348-0.25955 0.22247-0.25955 0.22247-1.7056v-1.3719h-10.456v7.4158h-4.0787v-7.4158h-11.198z"/></g></svg>
