<svg version="1.1" viewBox="0 0 48 48" xml:space="preserve" xmlns="http://www.w3.org/2000/svg"><g><rect transform="matrix(.09375 0 0 .09375 3.643e-6 0)" width="512" height="512" fill="#fff"/><path transform="matrix(.16676 0 0 .16676 -18.69 -20.379)" d="m163.81 178v23.568h79.025v6.933h-88.035v54.069h28.421v-34.66h59.638l-0.3338 31.609c-1.5747 0.36139-4.2283 1.228-8.0091 2.5398v-6.4213h-42.977v15.942h15.438c-14.152 4.7428-31.995 10.406-53.7 16.346l6.7969 22.318c11.961-2.9103 26.797-7.9968 41.209-13.442v9.3937h109.44v-9.3937c14.413 5.4454 29.248 10.532 41.209 13.442l6.7969-22.318c-21.704-5.9406-39.547-11.604-53.7-16.346h15.438v-15.942h-42.977v6.4213c-3.7808-1.3118-6.4344-2.1784-8.0091-2.5398l-0.33381-31.609h59.638v34.66h28.421v-54.069h-88.035v-6.933h79.025v-23.568zm27.728 56.148v15.945h42.977v-15.945zm85.957 0v15.945h42.977v-15.945zm-21.49 39.957s10.97 4.9518 26.017 11.236h-52.034c15.047-6.2844 26.017-11.236 26.017-11.236zm-89.723 39.104v19.984l43.163 0.26683v39.557h26.261v-39.557l82.039-0.26683 0.11859 12.345-47.417 0.20424 0.32282 23.087 54.933-0.19545c8.3743-0.0297 15.147-6.8258 15.147-15.2l0.0022-39.883z" stroke-width=".66314"/></g></svg>
